<?xml version="1.0" encoding="iso-8859-1"?>
<!-- Generator: Adobe Illustrator 19.0.0, SVG Export Plug-In . SVG Version: 6.00 Build 0)  -->
<svg version="1.1" id="Layer_1" xmlns="http://www.w3.org/2000/svg" xmlns:xlink="http://www.w3.org/1999/xlink" x="0px" y="0px"
	 viewBox="0 0 512 512" style="enable-background:new 0 0 512 512;" xml:space="preserve">
<path style="fill:#2D527C;" d="M453.185,453.063H58.815C26.384,453.063,0,426.68,0,394.249V117.752
	c0-32.431,26.384-58.815,58.815-58.815h394.37c32.431,0,58.815,26.384,58.815,58.815v109.054c0,8.062-6.537,14.597-14.597,14.597
	s-14.597-6.535-14.597-14.597V117.752c0-16.333-13.288-29.621-29.621-29.621H58.815c-16.333,0-29.621,13.288-29.621,29.621v276.497
	c0,16.333,13.288,29.621,29.621,29.621h394.37c16.333,0,29.621-13.288,29.621-29.621V319.5c0-8.062,6.537-14.597,14.597-14.597
	S512,311.438,512,319.5v74.749C512,426.68,485.616,453.063,453.185,453.063z"/>
<path style="fill:#CEE8FA;" d="M222.67,375.696H76.698v-57.167c0-32.92,26.687-59.605,59.605-59.605h26.761
	c32.92,0,59.605,26.687,59.605,59.605v57.167H222.67z"/>
<path style="fill:#2D527C;" d="M222.67,390.294H76.698c-8.061,0-14.597-6.535-14.597-14.597v-57.167
	c0-40.916,33.287-74.202,74.203-74.202h26.761c40.915,0,74.202,33.287,74.202,74.202v57.167
	C237.267,383.758,230.731,390.294,222.67,390.294z M91.295,361.099h116.778v-42.57c0-24.817-20.191-45.008-45.008-45.008h-26.761
	c-24.818,0-45.009,20.191-45.009,45.008V361.099z"/>
<circle style="fill:#CEE8FA;" cx="149.68" cy="194.698" r="58.389"/>
<g>
	<path style="fill:#2D527C;" d="M149.684,267.68c-40.244,0-72.986-32.742-72.986-72.986s32.742-72.986,72.986-72.986
		s72.986,32.742,72.986,72.986S189.929,267.68,149.684,267.68z M149.684,150.902c-24.147,0-43.792,19.645-43.792,43.792
		s19.645,43.792,43.792,43.792s43.792-19.645,43.792-43.792S173.831,150.902,149.684,150.902z"/>
	<path style="fill:#2D527C;" d="M318.524,232.155h-58.389c-8.061,0-14.597-6.535-14.597-14.597v-59.362
		c0-8.062,6.537-14.597,14.597-14.597h58.389c8.061,0,14.597,6.535,14.597,14.597v59.362
		C333.121,225.62,326.585,232.155,318.524,232.155z M274.733,202.96h29.194v-30.168h-29.194V202.96z"/>
	<path style="fill:#2D527C;" d="M376.913,232.155h-58.389c-8.061,0-14.597-6.535-14.597-14.597v-59.362
		c0-8.062,6.537-14.597,14.597-14.597h58.389c8.061,0,14.597,6.535,14.597,14.597v59.362
		C391.51,225.62,384.974,232.155,376.913,232.155z M333.121,202.96h29.194v-30.168h-29.194V202.96z"/>
	<path style="fill:#2D527C;" d="M435.302,232.155h-58.389c-8.061,0-14.597-6.535-14.597-14.597v-59.362
		c0-8.062,6.537-14.597,14.597-14.597h58.389c8.061,0,14.597,6.535,14.597,14.597s-6.537,14.597-14.597,14.597H391.51v30.168h43.792
		c8.061,0,14.597,6.535,14.597,14.597S443.362,232.155,435.302,232.155z"/>
	<path style="fill:#2D527C;" d="M411.215,299.792H284.221c-8.061,0-14.597-6.535-14.597-14.597c0-8.062,6.537-14.597,14.597-14.597
		h126.994c8.061,0,14.597,6.535,14.597,14.597C425.812,293.257,419.276,299.792,411.215,299.792z"/>
	<path style="fill:#2D527C;" d="M411.215,372.778H284.221c-8.061,0-14.597-6.535-14.597-14.597c0-8.062,6.537-14.597,14.597-14.597
		h126.994c8.061,0,14.597,6.535,14.597,14.597C425.812,366.243,419.276,372.778,411.215,372.778z"/>
</g>
<g>
</g>
<g>
</g>
<g>
</g>
<g>
</g>
<g>
</g>
<g>
</g>
<g>
</g>
<g>
</g>
<g>
</g>
<g>
</g>
<g>
</g>
<g>
</g>
<g>
</g>
<g>
</g>
<g>
</g>
</svg>
